<svg width="16" height="16" viewBox="0 0 16 16" fill="none" xmlns="http://www.w3.org/2000/svg">
<path fill-rule="evenodd" clip-rule="evenodd" d="M9.07544 0.719802C8.67966 -0.239934 7.32034 -0.239934 6.92456 0.719802L6.40153 1.9881C6.15605 2.58336 5.47373 2.86599 4.87923 2.61865L3.61257 2.09167C2.65408 1.69289 1.69289 2.65408 2.09167 3.61257L2.61865 4.87923C2.86599 5.47373 2.58336 6.15605 1.9881 6.40153L0.719802 6.92456C-0.239934 7.32034 -0.239934 8.67966 0.719802 9.07544L1.9881 9.59847C2.58336 9.84395 2.86599 10.5263 2.61865 11.1208L2.09167 12.3874C1.69289 13.3459 2.65408 14.3071 3.61257 13.9083L4.87923 13.3813C5.47373 13.134 6.15605 13.4166 6.40153 14.0119L6.92456 15.2802C7.32034 16.2399 8.67966 16.2399 9.07544 15.2802L9.59847 14.0119C9.84395 13.4166 10.5263 13.134 11.1208 13.3813L12.3874 13.9083C13.3459 14.3071 14.3071 13.3459 13.9083 12.3874L13.3813 11.1208C13.134 10.5263 13.4166 9.84395 14.0119 9.59847L15.2802 9.07544C16.2399 8.67966 16.2399 7.32034 15.2802 6.92456L14.0119 6.40153C13.4166 6.15605 13.134 5.47373 13.3813 4.87923L13.9083 3.61257C14.3071 2.65408 13.3459 1.69289 12.3874 2.09167L11.1208 2.61865C10.5263 2.86599 9.84395 2.58336 9.59847 1.9881L9.07544 0.719802ZM8 11C9.65685 11 11 9.65685 11 8C11 6.34315 9.65685 5 8 5C6.34315 5 5 6.34315 5 8C5 9.65685 6.34315 11 8 11Z" fill="#2D2D2D"/>
</svg>
